<svg version="1.1" id="Layer_1" xmlns="http://www.w3.org/2000/svg" xmlns:xlink="http://www.w3.org/1999/xlink" x="0px" y="0px"
	 width="100%" viewBox="0 0 888 573" enable-background="new 0 0 888 573" xml:space="preserve">
<path fill="#FFFFFF" opacity="1.000000" stroke="none" 
	d="
M889.000000,494.000000 
	C889.000000,520.651001 889.000000,547.302002 889.000000,574.000000 
	C671.643372,574.000000 454.286682,574.000000 236.651550,573.647217 
	C238.955490,572.859253 241.586166,572.610718 244.112503,571.958252 
	C260.035645,567.846191 271.906738,558.785278 277.997314,543.188904 
	C284.321228,526.994934 283.508087,509.706177 283.720612,492.931885 
	C284.448822,435.456848 284.000000,377.966949 284.000000,320.482697 
	C284.000000,318.732178 284.000000,316.981689 284.000000,315.274597 
	C261.973511,315.274597 240.714020,315.274597 219.346252,315.274597 
	C219.346252,325.931854 219.346252,336.311615 219.346252,347.262207 
	C229.073471,347.262207 238.464844,347.262207 247.831940,347.262207 
	C247.911133,348.499512 247.994232,349.163177 247.990250,349.826294 
	C247.664215,404.083099 247.449203,458.341248 246.824341,512.594666 
	C246.758926,518.275024 245.199387,524.382019 242.702271,529.494568 
	C238.053711,539.011841 228.355743,540.297668 219.114471,540.856750 
	C212.280457,541.270264 205.367050,540.371460 198.000076,540.034851 
	C198.000076,549.967957 198.189011,559.429871 197.884201,568.875854 
	C197.793518,571.685852 198.993118,572.883118 201.000000,574.000000 
	C134.378159,574.000000 67.756317,574.000000 1.000000,574.000000 
	C1.000000,427.643372 1.000000,281.286682 1.359614,134.601990 
	C2.142785,135.124695 2.792881,135.934036 2.956995,136.832169 
	C7.957718,164.199112 22.333977,185.542801 44.380821,202.150223 
	C56.916939,211.593414 71.021690,217.276077 86.091805,221.014481 
	C87.308426,221.316299 88.665833,222.542252 89.240334,223.696030 
	C92.662140,230.568008 95.612083,237.683319 99.204910,244.460114 
	C108.766418,262.495026 123.333122,275.569916 141.175949,284.979614 
	C163.173782,296.580444 186.510147,299.621246 210.964661,295.058655 
	C226.797745,292.104614 240.829208,285.492981 253.164337,275.273926 
	C258.441589,270.901978 263.390625,266.133850 269.232208,260.876678 
	C269.232208,272.095459 269.232208,282.462311 269.232208,292.708374 
	C297.064606,292.708374 324.322113,292.708374 351.638306,292.708374 
	C351.638306,279.035095 351.638306,265.656494 351.638306,251.886200 
	C338.683380,251.886200 326.084473,251.886200 312.921509,251.886200 
	C312.921509,241.113968 312.921509,230.724060 312.921509,220.003860 
	C295.049591,220.003860 277.748871,219.938553 260.451080,220.132141 
	C259.117432,220.147064 257.448517,221.731400 256.536652,223.013794 
	C247.687195,235.459442 236.923050,245.448914 222.487869,251.218369 
	C206.639954,257.552490 190.878708,257.405029 175.015320,251.518936 
	C159.274307,245.678238 147.669250,235.094711 139.651886,221.022552 
	C148.862885,216.987747 158.381683,213.605408 167.131302,208.817459 
	C184.055420,199.556274 197.912399,186.601044 207.510864,169.794479 
	C221.793671,144.785812 224.507690,117.806580 220.141403,89.643898 
	C217.032242,69.589691 208.865326,52.026089 195.436401,37.089832 
	C182.350876,22.535521 166.317764,12.090167 147.588470,6.013580 
	C142.396622,4.329123 137.196381,2.670486 132.000000,1.000000 
	C384.244202,1.000000 636.488403,1.000000 889.000000,1.000000 
	C889.000000,154.356552 889.000000,307.713257 888.531372,461.534973 
	C877.804077,462.000000 867.545471,462.000000 856.905457,462.000000 
	C856.905457,408.702606 856.905457,356.107391 856.905457,303.319763 
	C844.792542,303.319763 833.078613,303.319763 820.830811,303.319763 
	C820.830811,313.666016 820.830811,323.701263 820.830811,334.348083 
	C819.629028,333.653107 819.074158,333.390045 818.582092,333.039062 
	C811.118103,327.715302 804.168579,321.394043 796.100098,317.250977 
	C778.838440,308.387390 760.414185,305.927307 741.131897,309.912018 
	C718.727173,314.542023 701.037598,326.447479 687.051880,344.074036 
	C676.813354,356.977936 671.654358,371.979218 669.906982,388.359192 
	C667.835022,407.781281 668.470032,426.823303 675.993774,445.144745 
	C677.898193,449.782257 680.255066,454.233948 682.377686,458.715515 
	C674.303589,458.715515 666.366272,458.715515 657.865051,458.715515 
	C657.865051,383.053986 657.865051,307.674744 657.865051,232.249847 
	C634.029663,232.249847 610.767456,232.249847 587.323730,232.249847 
	C587.323730,243.215668 587.323730,253.929718 587.323730,265.218201 
	C598.695801,265.218201 609.753845,265.218201 620.548462,265.218201 
	C620.548462,287.805756 620.548462,309.813995 620.548462,332.745697 
	C618.658875,330.989288 617.585999,329.726746 616.270691,328.813293 
	C608.747070,323.588043 601.668152,317.388641 593.494934,313.505249 
	C578.531128,306.395233 562.530029,304.425507 545.884399,306.890839 
	C520.729736,310.616425 501.246307,323.490265 486.057831,343.172424 
	C475.014862,357.482605 470.328430,374.480286 469.158447,392.187836 
	C467.797577,412.783905 469.920349,433.014313 480.239136,451.554169 
	C481.945831,454.620605 483.883545,457.558472 485.797607,460.691742 
	C477.247223,460.691742 469.313446,460.691742 460.815582,460.691742 
	C460.815582,411.338257 460.815582,362.290009 460.815582,313.275574 
	C437.977692,313.275574 415.715179,313.275574 393.349487,313.275574 
	C393.349487,323.935455 393.349487,334.316772 393.349487,345.093018 
	C403.627258,345.093018 413.562134,345.093018 423.796112,345.093018 
	C423.878998,346.427063 423.990234,347.384247 423.990540,348.341522 
	C424.000305,378.339447 424.085052,408.338104 423.833221,438.333893 
	C423.813568,440.675720 421.799683,443.340607 420.044891,445.237579 
	C418.082367,447.359161 415.417053,448.865570 412.955780,450.484924 
	C400.168915,458.897614 386.726318,465.568756 370.877319,464.951904 
	C363.856903,464.678650 357.627197,461.800812 355.223419,454.997742 
	C353.196747,449.261841 352.175476,442.883453 352.134613,436.779877 
	C351.871338,397.451050 352.000000,358.119568 352.000000,318.788971 
	C352.000000,317.008514 352.000000,315.228027 352.000000,313.348206 
	C331.067871,313.348206 310.687561,313.348206 290.245361,313.348206 
	C290.245361,323.961121 290.245361,334.224121 290.245361,345.061584 
	C298.867279,345.061584 307.260284,345.061584 316.000000,345.061584 
	C316.000000,347.272949 315.986481,348.910126 316.001953,350.547058 
	C316.332764,385.481750 316.522003,420.418793 317.099823,455.349426 
	C317.248138,464.314087 319.979858,472.881073 325.624115,480.045227 
	C335.112671,492.088837 348.465942,496.424255 363.053772,496.874786 
	C378.608246,497.355194 393.169739,493.106598 406.594025,485.136200 
	C412.166382,481.827728 417.769958,478.571747 424.079773,474.869141 
	C424.079773,481.460846 424.079773,487.638916 424.079773,493.711670 
	C447.048035,493.711670 469.310669,493.711670 492.098022,493.711670 
	C492.098022,485.391388 492.098022,477.344391 492.098022,468.990509 
	C535.691467,502.804932 578.361389,505.467957 621.105713,467.846161 
	C621.105713,475.679291 621.105713,483.699707 621.105713,491.753967 
	C644.295898,491.753967 666.891479,491.753967 690.107300,491.753967 
	C690.107300,483.866852 690.107300,476.209045 690.107300,467.680389 
	C708.380676,486.739380 729.712219,496.347809 755.179016,497.063293 
	C780.959290,497.787628 802.312012,487.951050 821.231323,469.434296 
	C821.231323,478.419403 821.231323,486.018585 821.231323,494.000000 
	C844.070862,494.000000 866.535400,494.000000 889.000000,494.000000 
M76.695442,503.990173 
	C88.721588,506.673248 100.639694,508.803040 113.215897,507.209045 
	C125.669197,505.630615 137.337433,502.389374 147.763855,495.583527 
	C154.431519,491.231232 160.430756,485.854919 167.133698,480.622284 
	C167.133698,488.697449 167.133698,496.721405 167.133698,504.750061 
	C190.312973,504.750061 212.904007,504.750061 235.679474,504.750061 
	C235.679474,493.786469 235.679474,483.074615 235.679474,471.791382 
	C224.979431,471.791382 214.589493,471.791382 203.842407,471.791382 
	C203.842407,418.967255 203.842407,366.716003 203.842407,314.339630 
	C191.413269,314.339630 179.368225,314.339630 166.788559,314.339630 
	C166.788559,324.700500 166.788559,334.730835 166.788559,344.687744 
	C166.093201,344.752930 165.893692,344.836792 165.786774,344.770752 
	C165.234177,344.429413 164.633560,344.122345 164.178421,343.672974 
	C143.042892,322.804810 117.423683,315.316010 88.630470,320.239532 
	C67.643524,323.828186 50.349369,334.850281 36.306271,351.070374 
	C20.846556,368.926727 15.246766,390.051941 15.113222,412.974030 
	C15.066430,421.005676 15.888704,429.109863 17.072168,437.068237 
	C20.255461,458.474609 30.109764,476.337250 47.964039,488.784241 
	C56.593403,494.800049 66.533943,498.935089 76.695442,503.990173 
z"/>
<path fill="#5583C3" opacity="1.000000" stroke="none" 
	d="
M889.000000,493.531342 
	C866.535400,494.000000 844.070862,494.000000 821.231323,494.000000 
	C821.231323,486.018585 821.231323,478.419403 821.231323,469.434296 
	C802.312012,487.951050 780.959290,497.787628 755.179016,497.063293 
	C729.712219,496.347809 708.380676,486.739380 690.107300,467.680389 
	C690.107300,476.209045 690.107300,483.866852 690.107300,491.753967 
	C666.891479,491.753967 644.295898,491.753967 621.105713,491.753967 
	C621.105713,483.699707 621.105713,475.679291 621.105713,467.846161 
	C578.361389,505.467957 535.691467,502.804932 492.098022,468.990509 
	C492.098022,477.344391 492.098022,485.391388 492.098022,493.711670 
	C469.310669,493.711670 447.048035,493.711670 424.079773,493.711670 
	C424.079773,487.638916 424.079773,481.460846 424.079773,474.869141 
	C417.769958,478.571747 412.166382,481.827728 406.594025,485.136200 
	C393.169739,493.106598 378.608246,497.355194 363.053772,496.874786 
	C348.465942,496.424255 335.112671,492.088837 325.624115,480.045227 
	C319.979858,472.881073 317.248138,464.314087 317.099823,455.349426 
	C316.522003,420.418793 316.332764,385.481750 316.001953,350.547058 
	C315.986481,348.910126 316.000000,347.272949 316.000000,345.061584 
	C307.260284,345.061584 298.867279,345.061584 290.245361,345.061584 
	C290.245361,334.224121 290.245361,323.961121 290.245361,313.348206 
	C310.687561,313.348206 331.067871,313.348206 352.000000,313.348206 
	C352.000000,315.228027 352.000000,317.008514 352.000000,318.788971 
	C352.000000,358.119568 351.871338,397.451050 352.134613,436.779877 
	C352.175476,442.883453 353.196747,449.261841 355.223419,454.997742 
	C357.627197,461.800812 363.856903,464.678650 370.877319,464.951904 
	C386.726318,465.568756 400.168915,458.897614 412.955780,450.484924 
	C415.417053,448.865570 418.082367,447.359161 420.044891,445.237579 
	C421.799683,443.340607 423.813568,440.675720 423.833221,438.333893 
	C424.085052,408.338104 424.000305,378.339447 423.990540,348.341522 
	C423.990234,347.384247 423.878998,346.427063 423.796112,345.093018 
	C413.562134,345.093018 403.627258,345.093018 393.349487,345.093018 
	C393.349487,334.316772 393.349487,323.935455 393.349487,313.275574 
	C415.715179,313.275574 437.977692,313.275574 460.815582,313.275574 
	C460.815582,362.290009 460.815582,411.338257 460.815582,460.691742 
	C469.313446,460.691742 477.247223,460.691742 485.797607,460.691742 
	C483.883545,457.558472 481.945831,454.620605 480.239136,451.554169 
	C469.920349,433.014313 467.797577,412.783905 469.158447,392.187836 
	C470.328430,374.480286 475.014862,357.482605 486.057831,343.172424 
	C501.246307,323.490265 520.729736,310.616425 545.884399,306.890839 
	C562.530029,304.425507 578.531128,306.395233 593.494934,313.505249 
	C601.668152,317.388641 608.747070,323.588043 616.270691,328.813293 
	C617.585999,329.726746 618.658875,330.989288 620.548462,332.745697 
	C620.548462,309.813995 620.548462,287.805756 620.548462,265.218201 
	C609.753845,265.218201 598.695801,265.218201 587.323730,265.218201 
	C587.323730,253.929718 587.323730,243.215668 587.323730,232.249847 
	C610.767456,232.249847 634.029663,232.249847 657.865051,232.249847 
	C657.865051,307.674744 657.865051,383.053986 657.865051,458.715515 
	C666.366272,458.715515 674.303589,458.715515 682.377686,458.715515 
	C680.255066,454.233948 677.898193,449.782257 675.993774,445.144745 
	C668.470032,426.823303 667.835022,407.781281 669.906982,388.359192 
	C671.654358,371.979218 676.813354,356.977936 687.051880,344.074036 
	C701.037598,326.447479 718.727173,314.542023 741.131897,309.912018 
	C760.414185,305.927307 778.838440,308.387390 796.100098,317.250977 
	C804.168579,321.394043 811.118103,327.715302 818.582092,333.039062 
	C819.074158,333.390045 819.629028,333.653107 820.830811,334.348083 
	C820.830811,323.701263 820.830811,313.666016 820.830811,303.319763 
	C833.078613,303.319763 844.792542,303.319763 856.905457,303.319763 
	C856.905457,356.107391 856.905457,408.702606 856.905457,462.000000 
	C867.545471,462.000000 877.804077,462.000000 888.531372,462.000000 
	C889.000000,472.354218 889.000000,482.708466 889.000000,493.531342 
M777.282776,462.991211 
	C792.166016,458.886627 803.901245,450.442596 812.105957,437.338715 
	C819.135803,426.111084 821.264404,413.693176 821.071716,400.582764 
	C820.805603,382.472046 815.861023,366.751129 800.820862,355.240082 
	C790.921448,347.663513 779.992371,342.698120 767.573425,342.089294 
	C742.687500,340.869293 725.165527,352.697815 714.029785,374.305267 
	C708.396729,385.235443 707.102478,397.070068 707.831055,409.458954 
	C708.919067,427.958435 715.450562,443.323608 730.763245,454.133026 
	C744.537537,463.856506 759.853333,467.020386 777.282776,462.991211 
M615.549866,428.941650 
	C620.790771,417.894501 621.314941,406.141632 621.056519,394.187988 
	C620.823486,383.409790 618.256775,373.276947 611.960022,364.639252 
	C599.704163,347.827087 583.017700,339.794403 561.966064,339.869080 
	C539.648193,339.948242 521.066833,355.946198 513.096252,374.002228 
	C507.339020,387.044434 507.290924,400.654388 508.852448,414.642731 
	C511.665070,439.839081 532.094971,458.501556 555.582031,461.768555 
	C580.600464,465.248627 604.368408,452.485870 615.549866,428.941650 
z"/>
<path fill="#5583C3" opacity="1.000000" stroke="none" 
	d="
M131.531342,1.000000 
	C137.196381,2.670486 142.396622,4.329123 147.588470,6.013580 
	C166.317764,12.090167 182.350876,22.535521 195.436401,37.089832 
	C208.865326,52.026089 217.032242,69.589691 220.141403,89.643898 
	C224.507690,117.806580 221.793671,144.785812 207.510864,169.794479 
	C197.912399,186.601044 184.055420,199.556274 167.131302,208.817459 
	C158.381683,213.605408 148.862885,216.987747 139.651886,221.022552 
	C147.669250,235.094711 159.274307,245.678238 175.015320,251.518936 
	C190.878708,257.405029 206.639954,257.552490 222.487869,251.218369 
	C236.923050,245.448914 247.687195,235.459442 256.536652,223.013794 
	C257.448517,221.731400 259.117432,220.147064 260.451080,220.132141 
	C277.748871,219.938553 295.049591,220.003860 312.921509,220.003860 
	C312.921509,230.724060 312.921509,241.113968 312.921509,251.886200 
	C326.084473,251.886200 338.683380,251.886200 351.638306,251.886200 
	C351.638306,265.656494 351.638306,279.035095 351.638306,292.708374 
	C324.322113,292.708374 297.064606,292.708374 269.232208,292.708374 
	C269.232208,282.462311 269.232208,272.095459 269.232208,260.876678 
	C263.390625,266.133850 258.441589,270.901978 253.164337,275.273926 
	C240.829208,285.492981 226.797745,292.104614 210.964661,295.058655 
	C186.510147,299.621246 163.173782,296.580444 141.175949,284.979614 
	C123.333122,275.569916 108.766418,262.495026 99.204910,244.460114 
	C95.612083,237.683319 92.662140,230.568008 89.240334,223.696030 
	C88.665833,222.542252 87.308426,221.316299 86.091805,221.014481 
	C71.021690,217.276077 56.916939,211.593414 44.380821,202.150223 
	C22.333977,185.542801 7.957718,164.199112 2.956995,136.832169 
	C2.792881,135.934036 2.142785,135.124695 1.359614,134.136993 
	C1.000000,119.312439 1.000000,104.624878 1.359420,89.331833 
	C2.108162,88.207039 2.755241,87.730209 2.848826,87.162186 
	C4.807338,75.274765 8.747018,64.105621 15.051116,53.831242 
	C28.660498,31.650768 47.376781,15.567384 72.106636,7.000845 
	C79.241211,4.529394 86.693413,2.974890 94.000000,1.000000 
	C106.354225,1.000000 118.708458,1.000000 131.531342,1.000000 
M60.983242,62.521706 
	C58.282398,66.224678 55.291798,69.752571 52.930538,73.660721 
	C42.325005,91.214035 39.375851,110.177200 43.628517,130.136398 
	C47.808796,149.755859 58.577236,165.290909 74.650063,177.057251 
	C90.328911,188.535141 108.324631,192.190292 127.175156,189.657410 
	C143.911514,187.408600 157.991272,179.271469 169.781799,166.861435 
	C186.453781,149.313446 193.318329,128.286011 190.725327,104.838707 
	C188.044388,80.596344 175.770065,61.396511 154.990189,47.973263 
	C140.216537,38.429863 123.860229,35.092171 106.812325,37.353825 
	C88.847778,39.737080 73.483444,48.080070 60.983242,62.521706 
z"/>
<path fill="#5583C3" opacity="1.000000" stroke="none" 
	d="
M201.468658,574.000000 
	C198.993118,572.883118 197.793518,571.685852 197.884201,568.875854 
	C198.189011,559.429871 198.000076,549.967957 198.000076,540.034851 
	C205.367050,540.371460 212.280457,541.270264 219.114471,540.856750 
	C228.355743,540.297668 238.053711,539.011841 242.702271,529.494568 
	C245.199387,524.382019 246.758926,518.275024 246.824341,512.594666 
	C247.449203,458.341248 247.664215,404.083099 247.990250,349.826294 
	C247.994232,349.163177 247.911133,348.499512 247.831940,347.262207 
	C238.464844,347.262207 229.073471,347.262207 219.346252,347.262207 
	C219.346252,336.311615 219.346252,325.931854 219.346252,315.274597 
	C240.714020,315.274597 261.973511,315.274597 284.000000,315.274597 
	C284.000000,316.981689 284.000000,318.732178 284.000000,320.482697 
	C284.000000,377.966949 284.448822,435.456848 283.720612,492.931885 
	C283.508087,509.706177 284.321228,526.994934 277.997314,543.188904 
	C271.906738,558.785278 260.035645,567.846191 244.112503,571.958252 
	C241.586166,572.610718 238.955490,572.859253 236.186523,573.647217 
	C224.645767,574.000000 213.291550,574.000000 201.468658,574.000000 
z"/>
<path fill="#FFFFFF" opacity="1.000000" stroke="none" 
	d="
M93.531342,1.000000 
	C86.693413,2.974890 79.241211,4.529394 72.106636,7.000845 
	C47.376781,15.567384 28.660498,31.650768 15.051116,53.831242 
	C8.747018,64.105621 4.807338,75.274765 2.848826,87.162186 
	C2.755241,87.730209 2.108162,88.207039 1.359420,88.863174 
	C1.000000,59.737732 1.000000,30.475460 1.000000,1.000000 
	C31.687231,1.000000 62.374958,1.000000 93.531342,1.000000 
z"/>
<path fill="#5583C3" opacity="1.000000" stroke="none" 
	d="
M76.288124,503.955933 
	C66.533943,498.935089 56.593403,494.800049 47.964039,488.784241 
	C30.109764,476.337250 20.255461,458.474609 17.072168,437.068237 
	C15.888704,429.109863 15.066430,421.005676 15.113222,412.974030 
	C15.246766,390.051941 20.846556,368.926727 36.306271,351.070374 
	C50.349369,334.850281 67.643524,323.828186 88.630470,320.239532 
	C117.423683,315.316010 143.042892,322.804810 164.178421,343.672974 
	C164.633560,344.122345 165.234177,344.429413 165.786774,344.770752 
	C165.893692,344.836792 166.093201,344.752930 166.788559,344.687744 
	C166.788559,334.730835 166.788559,324.700500 166.788559,314.339630 
	C179.368225,314.339630 191.413269,314.339630 203.842407,314.339630 
	C203.842407,366.716003 203.842407,418.967255 203.842407,471.791382 
	C214.589493,471.791382 224.979431,471.791382 235.679474,471.791382 
	C235.679474,483.074615 235.679474,493.786469 235.679474,504.750061 
	C212.904007,504.750061 190.312973,504.750061 167.133698,504.750061 
	C167.133698,496.721405 167.133698,488.697449 167.133698,480.622284 
	C160.430756,485.854919 154.431519,491.231232 147.763855,495.583527 
	C137.337433,502.389374 125.669197,505.630615 113.215897,507.209045 
	C100.639694,508.803040 88.721588,506.673248 76.288124,503.955933 
M126.918343,472.565399 
	C145.265228,465.902740 157.975983,453.838654 164.172043,434.955719 
	C167.784286,423.947113 167.699005,412.686035 166.709793,401.608276 
	C165.731552,390.653320 161.751648,380.363220 153.672729,372.114990 
	C140.931519,359.106689 125.918701,352.190308 107.380249,352.896515 
	C94.076195,353.403320 82.935623,358.265015 73.340698,367.170532 
	C56.558105,382.747192 51.941360,402.661163 54.285999,424.374359 
	C55.141663,432.298431 57.570446,440.670227 61.543449,447.527222 
	C74.768066,470.351624 100.824348,480.113251 126.918343,472.565399 
z"/>
<path fill="#FFFFFF" opacity="1.000000" stroke="none" 
	d="
M776.856812,463.008545 
	C759.853333,467.020386 744.537537,463.856506 730.763245,454.133026 
	C715.450562,443.323608 708.919067,427.958435 707.831055,409.458954 
	C707.102478,397.070068 708.396729,385.235443 714.029785,374.305267 
	C725.165527,352.697815 742.687500,340.869293 767.573425,342.089294 
	C779.992371,342.698120 790.921448,347.663513 800.820862,355.240082 
	C815.861023,366.751129 820.805603,382.472046 821.071716,400.582764 
	C821.264404,413.693176 819.135803,426.111084 812.105957,437.338715 
	C803.901245,450.442596 792.166016,458.886627 776.856812,463.008545 
z"/>
<path fill="#FFFFFF" opacity="1.000000" stroke="none" 
	d="
M615.327576,429.255371 
	C604.368408,452.485870 580.600464,465.248627 555.582031,461.768555 
	C532.094971,458.501556 511.665070,439.839081 508.852448,414.642731 
	C507.290924,400.654388 507.339020,387.044434 513.096252,374.002228 
	C521.066833,355.946198 539.648193,339.948242 561.966064,339.869080 
	C583.017700,339.794403 599.704163,347.827087 611.960022,364.639252 
	C618.256775,373.276947 620.823486,383.409790 621.056519,394.187988 
	C621.314941,406.141632 620.790771,417.894501 615.327576,429.255371 
z"/>
<path fill="#FFFFFF" opacity="1.000000" stroke="none" 
	d="
M61.232224,62.268353 
	C73.483444,48.080070 88.847778,39.737080 106.812325,37.353825 
	C123.860229,35.092171 140.216537,38.429863 154.990189,47.973263 
	C175.770065,61.396511 188.044388,80.596344 190.725327,104.838707 
	C193.318329,128.286011 186.453781,149.313446 169.781799,166.861435 
	C157.991272,179.271469 143.911514,187.408600 127.175156,189.657410 
	C108.324631,192.190292 90.328911,188.535141 74.650063,177.057251 
	C58.577236,165.290909 47.808796,149.755859 43.628517,130.136398 
	C39.375851,110.177200 42.325005,91.214035 52.930538,73.660721 
	C55.291798,69.752571 58.282398,66.224678 61.232224,62.268353 
M145.499756,111.000000 
	C140.671555,111.000000 135.843338,110.999992 131.015137,111.000000 
	C111.202774,111.000015 91.389969,111.068527 71.578438,110.940269 
	C67.772041,110.915634 65.656281,111.529503 65.906174,116.086014 
	C66.263687,122.604866 65.683914,129.176285 66.065559,135.692383 
	C66.726128,146.970947 71.632256,156.584244 79.261116,164.666824 
	C90.234528,176.292862 103.948051,180.775269 119.867653,180.115219 
	C133.339462,179.556641 144.602158,174.430206 153.496429,164.816879 
	C166.712585,150.532272 170.055969,133.174149 166.780136,114.391457 
	C166.546555,113.052193 164.034470,111.274704 162.470749,111.155258 
	C157.173935,110.750641 151.827148,111.000336 145.499756,111.000000 
z"/>
<path fill="#FFFFFF" opacity="1.000000" stroke="none" 
	d="
M126.548309,472.742432 
	C100.824348,480.113251 74.768066,470.351624 61.543449,447.527222 
	C57.570446,440.670227 55.141663,432.298431 54.285999,424.374359 
	C51.941360,402.661163 56.558105,382.747192 73.340698,367.170532 
	C82.935623,358.265015 94.076195,353.403320 107.380249,352.896515 
	C125.918701,352.190308 140.931519,359.106689 153.672729,372.114990 
	C161.751648,380.363220 165.731552,390.653320 166.709793,401.608276 
	C167.699005,412.686035 167.784286,423.947113 164.172043,434.955719 
	C157.975983,453.838654 145.265228,465.902740 126.548309,472.742432 
z"/>
<path fill="#F2B74A" opacity="1.000000" stroke="none" 
	d="
M145.999603,111.000000 
	C151.827148,111.000336 157.173935,110.750641 162.470749,111.155258 
	C164.034470,111.274704 166.546555,113.052193 166.780136,114.391457 
	C170.055969,133.174149 166.712585,150.532272 153.496429,164.816879 
	C144.602158,174.430206 133.339462,179.556641 119.867653,180.115219 
	C103.948051,180.775269 90.234528,176.292862 79.261116,164.666824 
	C71.632256,156.584244 66.726128,146.970947 66.065559,135.692383 
	C65.683914,129.176285 66.263687,122.604866 65.906174,116.086014 
	C65.656281,111.529503 67.772041,110.915634 71.578438,110.940269 
	C91.389969,111.068527 111.202774,111.000015 131.015137,111.000000 
	C135.843338,110.999992 140.671555,111.000000 145.999603,111.000000 
z"/>
</svg>